<svg id="Ebene_1" data-name="Ebene 1" xmlns="http://www.w3.org/2000/svg" viewBox="0 0 26.91 28.35"><defs><style>.cls-1{fill:#9f9477;}</style></defs><title>Linden_Bildmarke_herbstgold</title><rect class="cls-1" x="12.1" y="25.08" width="2.7" height="2.7" transform="translate(-14.75 17.25) rotate(-45)"/><path class="cls-1" d="M.73,15.62A2.44,2.44,0,0,1,0,13.83a2.46,2.46,0,0,1,.78-1.78L13.45,0,26.13,12.05a2.48,2.48,0,0,1,0,3.57l-.1.11L13.45,2.26Z"/><polygon class="cls-1" points="3.13 18.02 13.45 8.41 23.78 18.02 21.87 19.93 13.46 10.54 5.04 19.93 3.13 18.02"/><polygon class="cls-1" points="7.33 22.23 13.45 16.83 19.57 22.23 17.66 24.14 13.46 19.09 9.25 24.14 7.33 22.23"/></svg>